<svg width="24" height="30" viewBox="0 0 24 30" fill="none" xmlns="http://www.w3.org/2000/svg">
<rect x="1.25586" y="1.18555" width="21.6615" height="27.7538" rx="2.2" fill="white" stroke="#022B50" stroke-width="0.66"/>
<rect x="0.162461" y="0.0757476" width="3.1605" height="11.2336" rx="0.382618" transform="matrix(0.937549 -0.347854 0.336258 0.94177 12.846 7.15467)" fill="#CCD5DC" stroke="#022B50" stroke-width="0.255079"/>
<rect width="2.02405" height="0.405483" transform="matrix(0.937549 -0.347854 0.336258 0.94177 14.0117 8.50098)" fill="#022B50"/>
<rect width="2.02405" height="0.405483" transform="matrix(0.937549 -0.347854 0.336258 0.94177 14.2832 9.26465)" fill="#022B50"/>
<rect width="2.02405" height="0.405483" transform="matrix(0.937549 -0.347854 0.336258 0.94177 14.5547 10.0293)" fill="#022B50"/>
<rect width="2.15055" height="2.18241" rx="1.07527" transform="matrix(0.937549 -0.347854 0.336258 0.94177 16.1992 14.6318)" stroke="#022B50" stroke-width="0.248304"/>
<path d="M17.7334 14.8971L17.7495 15.0466L17.1871 15.2553L17.1717 15.1055L17.7334 14.8971ZM17.6862 15.7669L17.2692 15.4787L17.2249 15.3568L17.3828 15.2982C17.4112 15.2877 17.432 15.2719 17.4452 15.2509C17.4583 15.2294 17.4648 15.2048 17.4648 15.1772C17.4651 15.149 17.4598 15.1197 17.449 15.0893C17.4378 15.0581 17.4243 15.0318 17.4085 15.0106C17.3929 14.9888 17.3739 14.9742 17.3516 14.9669C17.3293 14.9596 17.3028 14.9616 17.2721 14.973L17.1046 15.0351L17.0832 14.8532L17.2123 14.8053C17.2851 14.7783 17.3492 14.7686 17.4048 14.7761C17.4608 14.7834 17.5087 14.8063 17.5483 14.8447C17.5879 14.8831 17.6196 14.9357 17.6435 15.0024C17.6641 15.0603 17.6747 15.1139 17.6752 15.1632C17.676 15.2119 17.6646 15.2567 17.6409 15.2978C17.6176 15.3387 17.5807 15.3756 17.5302 15.4084L17.9032 15.6754L17.9067 15.6851L17.6862 15.7669ZM17.6449 14.6448L17.6586 14.7944L17.2137 14.9595L17.1986 14.8104L17.6449 14.6448Z" fill="#022B50"/>
<rect x="0.127575" y="0.12737" width="3.18068" height="11.4013" rx="0.382618" transform="matrix(0.99182 -0.00900121 0.00845611 1.00767 9.31442 6.14275)" fill="#CCD5DC" stroke="#022B50" stroke-width="0.255079"/>
<rect width="2.03601" height="0.411402" transform="matrix(0.99182 -0.00900121 0.00845611 1.00767 9.93555 7.89648)" fill="#022B50"/>
<rect width="2.03601" height="0.411402" transform="matrix(0.99182 -0.00900121 0.00845611 1.00767 9.94336 8.72559)" fill="#022B50"/>
<rect width="2.03601" height="0.411402" transform="matrix(0.99182 -0.00900121 0.00845611 1.00767 9.95117 9.55469)" fill="#022B50"/>
<rect width="2.16326" height="2.21427" rx="1.08163" transform="matrix(0.99182 -0.00900121 0.00845611 1.00767 9.99219 14.5537)" stroke="#022B50" stroke-width="0.248304"/>
<path d="M11.4016 15.2041L11.368 15.3513L10.773 15.3567L10.8074 15.2095L11.4016 15.2041ZM11.0742 16.0123L10.7772 15.5965L10.7754 15.4659L10.9425 15.4644C10.9725 15.4641 10.9972 15.4563 11.0164 15.4408C11.0356 15.4249 11.0497 15.4039 11.0587 15.3777C11.0682 15.351 11.0728 15.3215 11.0725 15.289C11.0722 15.2555 11.0681 15.2261 11.0601 15.2005C11.0527 15.1745 11.0397 15.1542 11.0211 15.1396C11.0026 15.125 10.9771 15.1179 10.9447 15.1182L10.7674 15.1198L10.8066 14.9401L10.9432 14.9388C11.0202 14.9381 11.0835 14.9509 11.1331 14.977C11.1832 15.0031 11.2206 15.0411 11.2452 15.0911C11.2698 15.1411 11.2825 15.2017 11.2831 15.2731C11.2836 15.3351 11.276 15.3895 11.2605 15.4364C11.2454 15.4828 11.22 15.5214 11.1844 15.5522C11.1493 15.5831 11.1028 15.6054 11.0448 15.6192L11.3073 15.9999L11.3074 16.0102L11.0742 16.0123ZM11.4008 14.9347L11.365 15.0812L10.8943 15.0854L10.9286 14.939L11.4008 14.9347Z" fill="#022B50"/>
<rect x="0.127575" y="0.12737" width="3.18068" height="11.4013" rx="0.382618" transform="matrix(0.99182 -0.00900121 0.00845611 1.00767 5.54294 6.14275)" fill="#CCD5DC" stroke="#022B50" stroke-width="0.255079"/>
<rect width="2.03601" height="0.411402" transform="matrix(0.99182 -0.00900121 0.00845611 1.00767 6.16406 7.89648)" fill="#022B50"/>
<rect width="2.03601" height="0.411402" transform="matrix(0.99182 -0.00900121 0.00845611 1.00767 6.17188 8.72559)" fill="#022B50"/>
<rect width="2.03601" height="0.411402" transform="matrix(0.99182 -0.00900121 0.00845611 1.00767 6.17969 9.55469)" fill="#022B50"/>
<rect width="2.16326" height="2.21427" rx="1.08163" transform="matrix(0.99182 -0.00900121 0.00845611 1.00767 6.2207 14.5537)" stroke="#022B50" stroke-width="0.248304"/>
<path d="M7.63014 15.2041L7.59651 15.3513L7.00156 15.3567L7.03592 15.2095L7.63014 15.2041ZM7.30274 16.0123L7.00575 15.5965L7.00393 15.4659L7.17101 15.4644C7.20104 15.4641 7.22567 15.4563 7.24491 15.4408C7.26415 15.4249 7.27826 15.4039 7.28725 15.3777C7.29671 15.351 7.3013 15.3215 7.30103 15.289C7.30075 15.2555 7.29663 15.2261 7.28867 15.2005C7.28118 15.1745 7.26818 15.1542 7.24965 15.1396C7.23112 15.125 7.20564 15.1179 7.17319 15.1182L6.99594 15.1198L7.03512 14.9401L7.17168 14.9388C7.24869 14.9381 7.312 14.9509 7.36162 14.977C7.41172 15.0031 7.44909 15.0411 7.47373 15.0911C7.49836 15.1411 7.51098 15.2017 7.51158 15.2731C7.5121 15.3351 7.50456 15.3895 7.48898 15.4364C7.47387 15.4828 7.44852 15.5214 7.41294 15.5522C7.37784 15.5831 7.33129 15.6054 7.27329 15.6192L7.53584 15.9999L7.53593 16.0102L7.30274 16.0123ZM7.62934 14.9347L7.59351 15.0812L7.12279 15.0854L7.15716 14.939L7.62934 14.9347Z" fill="#022B50"/>
<path d="M4.36719 22.3154L10.8989 22.3154" stroke="#8095A7" stroke-width="0.66" stroke-linecap="round" stroke-linejoin="round"/>
<path d="M4.36719 24.9551L12.4665 24.9551" stroke="#8095A7" stroke-width="0.66" stroke-linecap="round" stroke-linejoin="round"/>
<path d="M16.6465 22.3154L20.5655 22.3154" stroke="#8095A7" stroke-width="0.66" stroke-linecap="round" stroke-linejoin="round"/>
<path d="M16.6465 24.9551L20.5655 24.9551" stroke="#8095A7" stroke-width="0.66" stroke-linecap="round" stroke-linejoin="round"/>
</svg>
