<svg width="17" height="19" viewBox="0 0 17 19" fill="none" xmlns="http://www.w3.org/2000/svg">
<path d="M5.76809 18.6851H11.2321C14.1617 18.6851 16.537 18.6924 16.537 15.689C16.537 12.8549 14.4216 10.5275 11.72 10.2744C11.7119 10.6604 11.4876 11.0164 11.115 11.3085C11.1909 11.4216 11.25 11.5487 11.2843 11.6883L11.6975 13.3578C11.7825 13.6995 11.7252 14.0247 11.5364 14.2737C11.3649 14.4996 11.1049 14.6313 10.8201 14.6368L10.9408 14.9912L11.5137 16.6704C11.6358 17.0272 11.5898 17.3999 11.3873 17.6926C11.1845 17.9858 10.8567 18.1535 10.4873 18.1535H9.72861C9.19391 18.1535 8.69287 17.7904 8.49971 17.2854C8.30594 17.7904 7.8051 18.1535 7.27061 18.1535H6.51248C6.14367 18.1535 5.81588 17.986 5.61315 17.6935C5.41043 17.401 5.36423 17.0284 5.4857 16.6712L6.05883 14.9914L6.17931 14.637C5.89534 14.6315 5.63546 14.4998 5.464 14.2747C5.27521 14.0259 5.21766 13.7009 5.3021 13.3588L5.71531 11.6885C5.75036 11.5475 5.80851 11.4203 5.88299 11.3075C5.51159 11.0156 5.28816 10.66 5.27999 10.2744C2.57884 10.5275 0.462967 12.8551 0.462967 15.689C0.462967 18.6924 2.83812 18.6851 5.76809 18.6851Z" fill="#022B50"/>
<path d="M4.48707 5.35945C4.48986 5.39905 4.49325 5.43783 4.49663 5.47661C4.75273 8.4457 6.44682 10.7396 8.49996 10.7396C10.5525 10.7396 12.2474 8.4457 12.5037 5.47661C12.5069 5.43783 12.5099 5.39905 12.5131 5.35945C12.5314 5.23086 12.5433 5.10002 12.5507 4.96795C12.5561 4.87773 12.5593 4.7869 12.5593 4.69484C12.5593 4.46929 12.5433 4.24722 12.5131 4.03024C12.2161 1.92661 10.5324 0.314697 8.49977 0.314697C6.46713 0.314697 4.78379 1.92661 4.48707 4.03024C4.45641 4.24722 4.44087 4.46909 4.44087 4.69484C4.44087 4.7869 4.44446 4.87773 4.44904 4.96795C4.4566 5.10002 4.46875 5.23086 4.48707 5.35945ZM5.99616 2.99802C5.99616 2.99802 7.16413 3.57934 8.49977 3.6167C9.8354 3.57914 11.0038 2.99802 11.0038 2.99802C11.8505 3.34032 11.449 5.78054 11.449 5.78095C11.6607 5.6297 11.8543 5.55091 12.0122 5.5105C11.7798 8.1038 10.296 10.1035 8.49977 10.1035C6.70331 10.1035 5.22011 8.1038 4.98712 5.51029C5.14504 5.55071 5.3392 5.6295 5.55009 5.78075C5.55029 5.78034 5.14942 3.34012 5.99616 2.99802Z" fill="#022B50"/>
<path d="M6.19853 13.8206C6.23895 13.8206 6.28715 13.8078 6.34111 13.7804L7.15142 13.3701C7.20678 13.342 7.25497 13.3289 7.2938 13.3289C7.39756 13.3289 7.43778 13.4222 7.38362 13.5804L6.81069 15.2607L6.23776 16.9405C6.16348 17.1585 6.28715 17.3367 6.51238 17.3367H7.2709C7.49613 17.3367 7.72355 17.1532 7.77652 16.9285L8.24411 14.9341L8.5 13.8423L8.7559 14.9345L9.22348 16.9289C9.27625 17.1536 9.50387 17.3371 9.7289 17.3371H10.4876C10.7131 17.3371 10.8369 17.1589 10.7622 16.941L10.1891 15.2611L9.61599 13.5808C9.56222 13.4226 9.60285 13.3293 9.7062 13.3293C9.74523 13.3293 9.79322 13.3424 9.84859 13.3705L10.6587 13.7808C10.7127 13.8082 10.7609 13.821 10.8013 13.821C10.9126 13.821 10.9664 13.7237 10.9255 13.5598L10.5121 11.8897C10.4711 11.7227 10.3421 11.6221 10.1943 11.6221C10.1439 11.6221 10.0915 11.6339 10.0398 11.6584L9.30214 12.0072L8.56472 12.3563C8.54441 12.3657 8.52549 12.3775 8.50697 12.39L7.69786 12.0072L6.96044 11.6584C6.90847 11.6339 6.85609 11.6221 6.80591 11.6221C6.65815 11.6221 6.5291 11.7225 6.48768 11.8897L6.07466 13.5598C6.03404 13.7233 6.08761 13.8206 6.19853 13.8206Z" fill="#022B50"/>
</svg>
