<svg width="54" height="54" viewBox="0 0 54 54" fill="none" xmlns="http://www.w3.org/2000/svg">
<g clip-path="url(#clip0_4881_14848)">
<rect width="54" height="54" rx="27" fill="url(#paint0_linear_4881_14848)"/>
<g clip-path="url(#clip1_4881_14848)">
<path d="M12.7391 15.011H41.1808C41.6443 15.1912 41.7334 15.3193 41.7374 15.8948C41.7454 17.3323 41.7494 18.7707 41.7334 20.2081C41.7294 20.5814 41.8475 20.8737 42.0787 21.151C43.425 22.7656 44.7663 24.3851 46.1377 25.9777C46.6151 26.5332 46.7773 27.1548 46.8854 27.8265C47.0776 29.0197 47.3268 30.2018 47.4329 31.412C47.6111 33.455 46.8143 34.8954 45.0476 35.8433C44.6622 36.0495 44.5261 36.2697 44.5271 36.7011C44.5401 42.665 44.5361 48.6298 44.5361 54.5936C44.5361 54.8458 44.5491 55.1001 44.4831 55.3483C44.3739 55.7537 44.1667 55.9229 43.7463 55.9499C43.6803 55.9539 43.6132 55.9509 43.5471 55.9509C34.4663 55.9509 25.3864 55.9509 16.3056 55.9509C15.9222 55.9509 15.5398 55.9499 15.4207 55.4665C15.4177 54.7468 15.682 54.4815 16.4507 54.4775C18.5808 54.4685 20.7109 54.4745 22.8419 54.4745C25.0921 54.4745 27.3423 54.4755 29.5925 54.4735C30.1341 54.4735 30.1571 54.4515 30.1571 53.9109C30.1601 49.3845 30.1571 44.8591 30.1581 40.3327C30.1581 39.2426 30.4033 38.9844 31.4904 38.9804C34.167 38.9724 36.8426 38.9774 39.5192 38.9784C39.6123 38.9784 39.7054 38.9804 39.7985 38.9884C40.5853 39.0514 40.8585 39.3387 40.8595 40.1305C40.8635 44.6569 40.8605 49.1823 40.8615 53.7087C40.8615 54.2186 41.1128 54.4738 41.6153 54.4745C41.9085 54.4745 42.2008 54.4705 42.4941 54.4745C42.7414 54.4785 42.8705 54.3804 42.8605 54.1221C42.8555 54.003 42.8615 53.8829 42.8615 53.7628C42.8615 48.1984 42.8615 42.6339 42.8615 37.0695C42.8615 36.9634 42.8545 36.8563 42.8615 36.7502C42.8805 36.4689 42.7704 36.3498 42.4731 36.3348C41.1318 36.2647 40.0097 35.7282 39.1248 34.7062C38.8516 34.3909 38.8426 34.3989 38.5723 34.7162C36.7065 36.9053 33.122 36.9114 31.2241 34.7282C30.9509 34.4139 30.9118 34.4129 30.6516 34.7172C28.7877 36.8933 25.1452 36.9033 23.2884 34.7372C23.0081 34.4109 22.9731 34.4109 22.6898 34.7382C20.829 36.8903 17.2725 36.9043 15.3937 34.7663C15.0774 34.4069 15.0674 34.3969 14.7521 34.7583C13.9913 35.6301 13.0284 36.1176 11.8973 36.2998C11.8332 36.3188 11.7681 36.3318 11.7011 36.3368C11.0685 36.3828 11.0665 36.3828 11.0665 37.0024C11.0665 42.6119 11.0665 48.2204 11.0665 53.8299C11.0665 54.4334 11.0705 54.4204 11.6791 54.4755C12.4628 54.5466 13.2456 54.4975 14.0293 54.5095C14.5589 54.5406 14.7741 54.7518 14.8491 55.3113C14.7581 55.7748 14.5849 55.9449 14.1354 55.9479C12.8312 55.9559 11.5269 55.9559 10.2236 55.9479C9.74517 55.9449 9.52295 55.7447 9.42285 55.2783C9.3748 55.0551 9.38582 54.8278 9.38582 54.6016C9.38582 48.6678 9.38081 42.733 9.39482 36.7992C9.39583 36.3188 9.28772 36.0295 8.81826 35.8133C7.98845 35.4309 7.39087 34.7723 6.91541 33.9905C6.63213 33.5261 6.63413 33.0025 6.51001 32.5051V31.467C6.62712 30.0517 6.9054 28.6603 7.15063 27.2639C7.22471 26.8425 7.38887 26.4872 7.66113 26.1609C9.04148 24.5083 10.4248 22.8576 11.8142 21.212C12.0895 20.8867 12.2076 20.5494 12.2036 20.126C12.1885 18.7036 12.1906 17.2812 12.2006 15.8588C12.2046 15.3103 12.2967 15.1822 12.7421 15.012L12.7391 15.011Z" fill="#313130"/>
<path d="M15.5228 55.4293C15.3096 55.1541 15.0073 55.3122 14.7471 55.2712C14.677 54.9078 14.4878 54.6616 14.0974 54.6176C13.4748 54.5585 12.8502 54.5915 12.2266 54.5985C11.9093 54.6025 11.7942 54.4614 11.7822 54.1771C11.7772 54.044 11.7772 53.9119 11.7772 53.7787C11.7772 48.1573 11.7772 42.5358 11.7782 36.9143C11.7782 36.652 11.7351 36.3778 11.9273 36.1515C13.2576 35.9113 14.3156 35.2487 15.0724 34.0825C16.0363 35.4999 17.3456 36.1826 19.0292 36.1856C20.7179 36.1886 22.0292 35.5039 22.9961 34.0925C23.955 35.4839 25.2553 36.1816 26.939 36.1856C28.6276 36.1896 29.9419 35.5149 30.9178 34.0915C31.8708 35.4759 33.168 36.1796 34.8487 36.1856C36.5353 36.1916 37.8556 35.5269 38.8246 34.1146C39.0057 34.2287 39.0818 34.4329 39.2129 34.585C40.1268 35.645 41.282 36.1826 42.6793 36.1736C42.9646 36.1716 43.0597 36.2256 43.0587 36.5379C43.0477 42.4487 43.0497 48.3584 43.0557 54.2692C43.0557 54.5335 43.0076 54.6466 42.7113 54.6336C42.1668 54.6095 41.6193 54.6115 41.0748 54.6336C40.7985 54.6446 40.7134 54.5655 40.7164 54.2822C40.7314 52.991 40.7234 51.6997 40.7234 50.4084C40.7234 46.9871 40.7234 43.5658 40.7234 40.1444C40.7234 39.3356 40.5562 39.1705 39.7364 39.1705C36.9137 39.1705 34.0909 39.1705 31.2692 39.1705C30.4534 39.1705 30.2802 39.3417 30.2802 40.1454C30.2802 44.818 30.2742 49.4906 30.2892 54.1631C30.2902 54.5545 30.1861 54.6376 29.8068 54.6366C25.3204 54.6226 20.833 54.6266 16.3466 54.6276C15.732 54.6276 15.5398 54.8197 15.5218 55.4303L15.5228 55.4293Z" fill="white"/>
<path d="M42.1968 27.6322C43.1017 27.6322 44.0076 27.6453 44.9124 27.6252C45.2448 27.6182 45.3899 27.6853 45.446 28.0597C45.6121 29.1757 45.8494 30.2818 46.0395 31.3949C46.2447 32.5881 45.7893 33.529 44.8634 34.2567C43.5521 35.2887 40.7864 35.2136 39.7974 33.1046C39.5592 32.5971 39.5282 32.0556 39.4641 31.515C39.324 30.3269 39.1758 29.1397 39.0127 27.9546C38.9746 27.6743 39.0637 27.6232 39.32 27.6262C40.2779 27.6392 41.2368 27.6312 42.1958 27.6312L42.1968 27.6322Z" fill="#8399FE"/>
<path d="M19.4026 27.6332C20.3465 27.6332 21.2914 27.6402 22.2353 27.6282C22.4826 27.6252 22.5867 27.6712 22.5686 27.9505C22.4746 29.3699 22.4415 30.7943 22.3044 32.2097C22.1773 33.5199 21.0792 34.6951 19.5037 34.8773C17.755 35.0795 16.2875 34.1756 15.8261 32.535C15.6709 31.9814 15.771 31.4319 15.8441 30.8794C15.9722 29.9184 16.0883 28.9555 16.1954 27.9916C16.2255 27.7233 16.3075 27.6162 16.6088 27.6242C17.5397 27.6492 18.4706 27.6332 19.4016 27.6332H19.4026Z" fill="#6FD7A3"/>
<path d="M34.5094 27.6333C35.4673 27.6333 36.4252 27.6403 37.3822 27.6283C37.5994 27.6253 37.6814 27.6903 37.7075 27.9045C37.8626 29.1968 38.1079 30.4841 38.1719 31.7803C38.244 33.2327 37.207 34.525 35.6955 34.8153C34.5834 35.0295 33.5224 34.8884 32.6275 34.1046C32.055 33.6031 31.6776 32.9705 31.6155 32.2188C31.4964 30.7884 31.4434 29.352 31.3533 27.9196C31.3393 27.6923 31.4093 27.6253 31.6366 27.6283C32.5945 27.6393 33.5524 27.6333 34.5094 27.6333Z" fill="#6FD7A3"/>
<path d="M26.9599 27.6322C27.8908 27.6322 28.8227 27.6332 29.7536 27.6312C29.9228 27.6312 30.0629 27.6252 30.073 27.8665C30.127 29.1948 30.2481 30.5231 30.2431 31.8514C30.2371 33.509 29.086 34.6581 27.3393 34.8773C25.6366 35.0915 24.1562 34.1116 23.7418 32.483C23.5846 31.8674 23.6817 31.2378 23.7057 30.6162C23.7388 29.7393 23.8098 28.8644 23.8409 27.9876C23.8509 27.7173 23.922 27.6202 24.2062 27.6262C25.1241 27.6433 26.042 27.6322 26.9599 27.6322Z" fill="#8399FE"/>
<path d="M9.70318 27.6452C11.3528 27.6412 13.0024 27.6422 14.652 27.6272C14.8992 27.6252 14.9333 27.7123 14.9053 27.9285C14.7501 29.1137 14.603 30.3008 14.4598 31.487C14.3948 32.0265 14.3787 32.5741 14.1345 33.0785C13.5149 34.3568 12.1916 35.0645 10.7442 34.8753C10.4449 34.8363 10.1306 34.8383 9.86233 34.6621C8.93242 33.9534 8.62112 32.9895 8.78728 31.8754C8.97547 30.6151 9.2137 29.3609 9.44893 28.1077C9.48296 27.9275 9.49097 27.7293 9.70217 27.6442L9.70318 27.6452Z" fill="#8399FE"/>
<path d="M16.777 26.348C16.756 26.1939 16.8391 26.0988 16.8901 25.9947C17.5668 24.6123 18.2485 23.233 18.9211 21.8486C19.0162 21.6525 19.1133 21.5474 19.3615 21.5504C20.6118 21.5664 21.862 21.5654 23.1112 21.5524C23.3885 21.5494 23.4235 21.6254 23.3805 21.8867C23.1522 23.2881 22.942 24.6934 22.7378 26.0988C22.7118 26.276 22.6648 26.352 22.4736 26.351C20.5747 26.345 18.6759 26.348 16.777 26.348Z" fill="#6FD7A3"/>
<path d="M37.2039 26.3491C35.25 26.3491 33.3752 26.3461 31.5004 26.3531C31.2882 26.3531 31.2091 26.2991 31.1771 26.0738C30.9749 24.6545 30.7597 23.2371 30.5294 21.8217C30.4924 21.5915 30.5485 21.5544 30.7547 21.5554C32.0449 21.5614 33.3342 21.5594 34.6244 21.5574C34.7476 21.5574 34.8537 21.5574 34.9207 21.6946C35.6705 23.2291 36.4242 24.7616 37.203 26.3481L37.2039 26.3491Z" fill="#6FD7A3"/>
<path d="M26.9439 26.3492C26.066 26.3492 25.1882 26.3492 24.3103 26.3492C24.1502 26.3492 23.998 26.3852 24.0431 26.1079C24.2733 24.6926 24.4885 23.2742 24.6927 21.8548C24.7267 21.6186 24.8068 21.5525 25.041 21.5545C26.3183 21.5655 27.5955 21.5645 28.8718 21.5545C29.094 21.5525 29.1921 21.5975 29.2271 21.8458C29.4283 23.2652 29.6455 24.6836 29.8758 26.0989C29.9188 26.3632 29.7907 26.3502 29.6185 26.3492C28.7276 26.3472 27.8358 26.3492 26.9449 26.3492H26.9439Z" fill="#8399FE"/>
<path d="M44.44 26.2909C44.3459 26.383 44.2488 26.347 44.1617 26.347C42.419 26.35 40.6753 26.347 38.9326 26.352C38.7395 26.352 38.6233 26.308 38.5312 26.1178C37.8246 24.6594 37.1039 23.2069 36.3892 21.7525C36.3671 21.7075 36.3531 21.6584 36.3141 21.5583C37.0668 21.5583 37.7785 21.5583 38.4902 21.5583C39.0758 21.5583 39.6614 21.5653 40.2469 21.5543C40.4351 21.5513 40.5702 21.6004 40.6934 21.7495C41.9166 23.223 43.1458 24.6924 44.3729 26.1638C44.403 26.1999 44.419 26.2489 44.441 26.2899L44.44 26.2909Z" fill="#8399FE"/>
<path d="M11.9272 36.1506C11.9323 36.3498 11.9413 36.55 11.9413 36.7492C11.9413 42.1135 11.9383 47.4777 11.9463 52.8419C11.9463 53.3945 11.706 54.1102 12.0524 54.4555C12.3797 54.7818 13.0914 54.5196 13.6329 54.5526C13.7891 54.5616 13.9542 54.5095 14.0964 54.6177C13.1124 54.6207 12.1294 54.6177 11.1455 54.6297C10.9423 54.6317 10.8452 54.5756 10.8692 54.3624C10.8782 54.2833 10.8702 54.2032 10.8702 54.1232C10.8702 48.2995 10.8742 42.4768 10.8612 36.6531C10.8612 36.2818 10.9303 36.1166 11.3297 36.1737C11.5239 36.2017 11.7271 36.1606 11.9262 36.1506H11.9272Z" fill="#D6D6D5"/>
<path d="M14.8171 21.5754H17.6299C16.8371 23.167 16.0634 24.7205 15.2906 26.273C15.1685 26.3531 15.0314 26.3111 14.9022 26.3121C13.7311 26.3161 12.5599 26.3171 11.3898 26.3101C11.2427 26.3101 11.0375 26.4001 10.9584 26.221C10.8773 26.0388 11.0455 25.9017 11.1536 25.7715C11.9523 24.8096 12.7581 23.8537 13.5649 22.8967C13.8222 22.5914 14.0794 22.2871 14.3337 21.9788C14.4698 21.8137 14.6129 21.6565 14.8191 21.5754H14.8171Z" fill="#8399FE"/>
<path d="M32.7096 43.9311C32.7096 47.3094 32.7166 50.6867 32.7036 54.065C32.7026 54.4414 32.7947 54.5655 33.1881 54.5625C35.2631 54.5445 37.3381 54.5555 39.4121 54.5565C39.3291 54.6926 39.1949 54.6246 39.0878 54.6246C36.7065 54.6286 34.3252 54.6206 31.9439 54.6326C31.6406 54.6346 31.5675 54.5495 31.5685 54.2532C31.5785 50.928 31.5795 47.6027 31.5685 44.2765C31.5675 43.9662 31.6646 43.8811 31.9529 43.9101C32.2031 43.9351 32.4574 43.9251 32.7096 43.9311Z" fill="#7089FF"/>
<path d="M39.3971 42.5739C39.291 42.658 39.1668 42.6189 39.0507 42.6189C36.6974 42.6189 34.3431 42.6109 31.9898 42.6229C31.6585 42.625 31.5494 42.5389 31.5694 42.2035C31.5975 41.7261 31.5854 41.2466 31.5734 40.7681C31.5674 40.5519 31.6255 40.4648 31.8607 40.4648C34.2941 40.4719 36.7275 40.4709 39.1618 40.4658C39.366 40.4658 39.4521 40.5239 39.4371 40.7361C39.4191 41.0004 39.4231 41.2666 39.4171 41.5319C39.2389 41.7201 39.0047 41.691 38.7815 41.691C36.9737 41.694 35.1659 41.689 33.3572 41.694C32.9598 41.695 32.8577 41.7941 32.8827 42.1034C32.8957 42.2726 32.9688 42.3777 33.145 42.3957C33.2771 42.4097 33.4102 42.4057 33.5434 42.4057C35.2851 42.4057 37.0267 42.4037 38.7674 42.4077C38.9887 42.4077 39.2269 42.3677 39.3981 42.5719L39.3971 42.5739Z" fill="#7089FF"/>
<path d="M26.9189 20.2791C22.6597 20.2791 18.4006 20.2791 14.1414 20.2791C13.7944 20.2791 13.6206 20.1056 13.6199 19.7586C13.6199 18.7476 13.6299 17.7356 13.6139 16.7247C13.6089 16.4094 13.68 16.2832 14.0283 16.2842C22.6527 16.2922 31.2771 16.2912 39.9025 16.2822C40.2208 16.2822 40.3139 16.3783 40.3089 16.6916C40.2919 17.7427 40.2869 18.7947 40.3109 19.8457C40.3189 20.2071 40.1998 20.2901 39.8565 20.2891C35.5443 20.2781 31.2321 20.2821 26.9199 20.2821V20.2801L26.9189 20.2791Z" fill="#A96565"/>
<path d="M14.8171 21.5754C14.3657 22.246 13.7981 22.8236 13.2866 23.4452C12.5729 24.3131 11.8402 25.1639 11.1155 26.0227C11.0665 26.0808 10.9814 26.1398 11.0474 26.2239C11.1115 26.306 11.2196 26.274 11.3087 26.274C12.636 26.275 13.9623 26.274 15.2896 26.274C15.2375 26.3871 15.1324 26.355 15.0463 26.355C13.2386 26.355 11.4298 26.351 9.62205 26.347C9.58501 26.347 9.54897 26.332 9.44287 26.309C9.7822 25.8976 10.0945 25.5142 10.4118 25.1339C11.3047 24.0618 12.2076 22.9978 13.0884 21.9147C13.3016 21.6525 13.5178 21.5193 13.8612 21.5554C14.1765 21.5884 14.4978 21.5714 14.8171 21.5764V21.5754Z" fill="#7089FF"/>
<path d="M9.7031 27.6452C9.54395 28.473 9.38079 29.2988 9.22864 30.1276C9.13054 30.6592 9.06648 31.1977 8.95837 31.7262C8.75117 32.7332 8.99841 33.607 9.68508 34.3638C9.76516 34.4519 9.85925 34.5299 9.86326 34.6621C8.91033 34.4258 8.00344 33.3448 7.8593 32.3098C7.7502 31.525 8.02446 30.7923 8.12857 30.0376C8.22466 29.3429 8.38682 28.6572 8.49492 27.9645C8.53296 27.7223 8.61004 27.6102 8.86829 27.6302C9.14556 27.6512 9.42483 27.6422 9.7031 27.6462V27.6452Z" fill="#7089FF"/>
<path d="M20.7679 39.1686C22.885 39.1686 25.0021 39.1686 27.1191 39.1686C27.9149 39.1686 28.0891 39.3408 28.0891 40.1195C28.0891 42.636 28.0891 45.1514 28.0891 47.6679C28.0891 48.4226 27.8969 48.6208 27.1562 48.6208C22.895 48.6208 18.6349 48.6208 14.3737 48.6208C13.646 48.6208 13.4458 48.4216 13.4458 47.7049C13.4458 45.1625 13.4458 42.619 13.4458 40.0765C13.4458 39.3558 13.636 39.1696 14.3767 39.1686C16.5068 39.1666 18.6379 39.1686 20.7679 39.1686Z" fill="#313130"/>
<path d="M27.5246 16.3693C31.5835 16.3693 35.6425 16.3693 39.7014 16.3693C40.0478 16.3693 40.2213 16.5445 40.2219 16.8948C40.2219 17.8527 40.2119 18.8107 40.228 19.7686C40.233 20.0849 40.1569 20.21 39.8105 20.21C31.5865 20.201 23.3615 20.202 15.1375 20.21C14.8182 20.21 14.7251 20.1099 14.7311 19.7986C14.7471 18.8007 14.7531 17.8027 14.7291 16.8047C14.7201 16.4404 14.8492 16.3623 15.1885 16.3633C19.3005 16.3733 23.4125 16.3703 27.5256 16.3703L27.5246 16.3693Z" fill="#B98080"/>
<path d="M26.7908 41.6129C26.8038 43.5018 26.8278 45.3896 26.7788 47.2785C26.6567 47.3586 26.5195 47.3205 26.3894 47.3205C23.0091 47.3225 19.6288 47.3225 16.2495 47.3225C15.7631 47.3225 15.697 47.2665 15.695 46.775C15.687 45.2185 15.686 43.6619 15.695 42.1044C15.698 41.6009 15.8411 41.4528 16.3356 41.4518C19.6488 41.4438 22.9631 41.4468 26.2763 41.4488C26.4645 41.4488 26.6517 41.4548 26.7908 41.6119V41.6129Z" fill="#CEEFFF"/>
<path d="M26.7909 41.613C23.2894 41.612 19.789 41.616 16.2876 41.602C15.9223 41.6 15.8442 41.7241 15.8472 42.0624C15.8622 43.659 15.8622 45.2566 15.8472 46.8541C15.8442 47.1864 15.9453 47.2815 16.2756 47.2805C19.777 47.2715 23.2774 47.2765 26.7788 47.2785C26.6687 47.3936 26.5276 47.3366 26.4025 47.3366C22.6518 47.3366 18.9012 47.3286 15.1505 47.3366C14.8302 47.3366 14.7201 47.2725 14.7231 46.9272C14.7401 44.9062 14.7381 42.8842 14.7241 40.8633C14.7221 40.553 14.8002 40.4629 15.1175 40.4639C18.8811 40.4749 22.6458 40.4749 26.4095 40.4639C26.7158 40.4639 26.8449 40.5339 26.8069 40.8563C26.7778 41.1055 26.7939 41.3607 26.7899 41.613H26.7909Z" fill="#AAE3FF"/>
<path d="M27.042 18.9257C23.3955 18.9257 19.7489 18.9257 16.1024 18.9257C15.9562 18.9257 15.8061 18.9397 15.6649 18.9117C15.3196 18.8416 15.1294 18.6194 15.1394 18.2641C15.1484 17.9268 15.3406 17.7226 15.6679 17.6585C15.784 17.6355 15.9062 17.6455 16.0263 17.6455C23.3734 17.6455 30.7196 17.6455 38.0668 17.6455C38.6784 17.6455 38.9476 17.8367 38.9496 18.2641C38.9496 18.6204 38.7344 18.8757 38.3831 18.9197C38.252 18.9357 38.1168 18.9277 37.9847 18.9277C34.3381 18.9277 30.6916 18.9277 27.045 18.9277L27.042 18.9257Z" fill="#313130"/>
<path d="M32.7095 43.9312C34.8636 43.9251 37.0177 43.9211 39.1708 43.9111C39.344 43.9111 39.4371 43.9392 39.4361 44.1464C39.4241 47.6157 39.4191 51.0861 39.412 54.5555C39.2719 54.6216 39.1238 54.5886 38.9796 54.5886C37.0387 54.5906 35.0978 54.5906 33.1579 54.5906C32.6004 54.5906 32.5514 54.5465 32.5504 53.976C32.5463 51.3314 32.5484 48.6868 32.5484 46.0412C32.5484 45.5097 32.5473 44.9782 32.5494 44.4467C32.5494 44.2575 32.5584 44.0723 32.7095 43.9302V43.9312Z" fill="#8399FE"/>
<path d="M39.3971 42.5738C37.3351 42.5718 35.2721 42.5698 33.21 42.5668C32.7106 42.5668 32.7406 42.5638 32.7016 42.0222C32.6715 41.5918 32.8457 41.5217 33.2281 41.5247C35.2901 41.5418 37.3531 41.5328 39.4151 41.5328C39.4331 41.8801 39.4662 42.2274 39.3961 42.5738H39.3971Z" fill="#8399FE"/>
</g>
</g>
<defs>
<linearGradient id="paint0_linear_4881_14848" x1="-7.5" y1="-16.75" x2="57.3713" y2="56.0647" gradientUnits="userSpaceOnUse">
<stop stop-color="#F1EAFF"/>
<stop offset="1" stop-color="#ECF2FF"/>
</linearGradient>
<clipPath id="clip0_4881_14848">
<rect width="54" height="54" rx="27" fill="white"/>
</clipPath>
<clipPath id="clip1_4881_14848">
<rect width="41" height="41" fill="white" transform="translate(6.5 15)"/>
</clipPath>
</defs>
</svg>
