<svg width="24" height="30" viewBox="0 0 24 30" fill="none" xmlns="http://www.w3.org/2000/svg">
<rect x="1.25586" y="1.18555" width="21.6615" height="27.7538" rx="2.2" fill="white" stroke="#022B50" stroke-width="0.66"/>
<rect x="5.04883" y="14.4414" width="3.83405" height="0.969788" rx="0.13693" stroke="#022B50" stroke-width="0.172419"/>
<rect x="6.00977" y="13.4717" width="1.91702" height="0.969788" rx="0.13693" stroke="#022B50" stroke-width="0.172419"/>
<path d="M9.75977 8.14724C9.75977 8.06646 9.82525 8.00098 9.90603 8.00098H15.0904C15.1712 8.00098 15.2366 8.06646 15.2366 8.14724V22.6484H9.75977V8.14724Z" fill="white" stroke="#022B50" stroke-width="0.306131"/>
<path d="M9.75586 10.2635C9.75586 10.1827 9.82135 10.1172 9.90213 10.1172H15.0868C15.1676 10.1172 15.2331 10.1827 15.2331 10.2635V22.5859H9.75586V10.2635Z" fill="#CCD5DC" stroke="#022B50" stroke-width="0.306131"/>
<path d="M4.00586 15.4949C4.00586 15.4141 4.07135 15.3486 4.15213 15.3486H9.61066C9.69144 15.3486 9.75693 15.4141 9.75693 15.4949V22.4065C9.75693 22.4873 9.69144 22.5528 9.61066 22.5528H4.00586V15.4949Z" fill="#CCD5DC" stroke="#022B50" stroke-width="0.25"/>
<path d="M4.00391 22.6484H15.2368V23.0014H4.00391V22.6484Z" fill="white" stroke="#022B50" stroke-width="0.172419" stroke-linejoin="round"/>
<rect x="10.7168" y="11.0059" width="1.3164" height="1.47987" rx="0.146266" fill="white" stroke="#022B50" stroke-width="0.306131"/>
<rect x="10.7168" y="13.373" width="1.3164" height="1.47987" rx="0.146266" fill="white" stroke="#022B50" stroke-width="0.306131"/>
<rect x="10.7168" y="15.7402" width="1.3164" height="1.47987" rx="0.146266" fill="white" stroke="#022B50" stroke-width="0.306131"/>
<rect x="5.10156" y="16.332" width="1.3164" height="1.47987" rx="0.146266" fill="white" stroke="#022B50" stroke-width="0.172419"/>
<rect x="10.7168" y="18.1084" width="1.3164" height="1.47987" rx="0.146266" fill="white" stroke="#022B50" stroke-width="0.306131"/>
<rect x="5.10156" y="18.7002" width="1.3164" height="1.47987" rx="0.146266" fill="white" stroke="#022B50" stroke-width="0.172419"/>
<rect x="12.9102" y="11.0059" width="1.3164" height="1.47987" rx="0.146266" fill="white" stroke="#022B50" stroke-width="0.306131"/>
<rect x="12.9102" y="13.373" width="1.3164" height="1.47987" rx="0.146266" fill="white" stroke="#022B50" stroke-width="0.306131"/>
<rect x="12.9102" y="15.7402" width="1.3164" height="1.47987" rx="0.146266" fill="white" stroke="#022B50" stroke-width="0.306131"/>
<rect x="7.29492" y="16.332" width="1.3164" height="1.47987" rx="0.146266" fill="white" stroke="#022B50" stroke-width="0.172419"/>
<rect x="12.9102" y="18.1084" width="1.3164" height="1.47987" rx="0.146266" fill="white" stroke="#022B50" stroke-width="0.306131"/>
<rect x="7.29492" y="18.7002" width="1.3164" height="1.47987" rx="0.146266" fill="white" stroke="#022B50" stroke-width="0.172419"/>
<path d="M9.89453 20.2295L15.0979 20.2295" stroke="#022B50" stroke-width="0.306131" stroke-linecap="round" stroke-linejoin="round"/>
<path d="M11.8105 21.6085C11.8105 21.2304 12.1171 20.9238 12.4952 20.9238C12.8733 20.9238 13.1798 21.2304 13.1798 21.6085V22.5863H11.8105V21.6085Z" fill="white" stroke="#022B50" stroke-width="0.306131"/>
<path d="M6.19727 21.6085C6.19727 21.2304 6.50379 20.9238 6.88192 20.9238C7.26004 20.9238 7.56657 21.2304 7.56657 21.6085V22.4478H6.19727V21.6085Z" fill="white" stroke="#022B50" stroke-width="0.172419"/>
<path d="M11.8418 9L11.6448 8.70382L11.4713 9H11.204L11.514 8.5082L11.1971 8.03293H11.4713L11.6655 8.32498L11.8363 8.03293H12.1036L11.7964 8.5206L12.116 9H11.8418ZM13.0635 8.03293L12.7288 8.6804V9H12.4932V8.6804L12.1585 8.03293H12.4257L12.6131 8.43794L12.799 8.03293H13.0635ZM13.4092 8.80714H13.8252V9H13.1419V8.82091L13.5552 8.2258H13.1419V8.03293H13.8252V8.21202L13.4092 8.80714Z" fill="#022B50"/>
<rect width="3.83405" height="0.969788" rx="0.13693" transform="matrix(-1 0 0 1 19.9316 14.4414)" stroke="#022B50" stroke-width="0.172419"/>
<rect width="1.91702" height="0.969788" rx="0.13693" transform="matrix(-1 0 0 1 18.9746 13.4717)" stroke="#022B50" stroke-width="0.172419"/>
<path d="M15.2227 8.14724C15.2227 8.06646 15.1572 8.00098 15.0764 8.00098H9.89204C9.81126 8.00098 9.74577 8.06646 9.74577 8.14724V22.6484H15.2227V8.14724Z" fill="white" stroke="#022B50" stroke-width="0.172419"/>
<path d="M15.2246 10.2635C15.2246 10.1827 15.1591 10.1172 15.0783 10.1172H9.89367C9.81289 10.1172 9.7474 10.1827 9.7474 10.2635V22.5859H15.2246V10.2635Z" fill="#CCD5DC" stroke="#022B50" stroke-width="0.172419"/>
<path d="M20.9766 15.4949C20.9766 15.4141 20.9111 15.3486 20.8303 15.3486H15.3718C15.291 15.3486 15.2255 15.4141 15.2255 15.4949V22.4065C15.2255 22.4873 15.291 22.5528 15.3718 22.5528H20.9766V15.4949Z" fill="#CCD5DC" stroke="#022B50" stroke-width="0.25"/>
<path d="M21.0703 22.6562H3.82844V23.0011H21.0703V22.6562Z" fill="white" stroke="#022B50" stroke-width="0.172419" stroke-linejoin="round"/>
<rect width="1.3164" height="1.47987" rx="0.146266" transform="matrix(-1 0 0 1 14.2656 11.0059)" fill="white" stroke="#022B50" stroke-width="0.172419"/>
<rect width="1.3164" height="1.47987" rx="0.146266" transform="matrix(-1 0 0 1 14.2656 13.373)" fill="white" stroke="#022B50" stroke-width="0.172419"/>
<rect width="1.3164" height="1.47987" rx="0.146266" transform="matrix(-1 0 0 1 14.2656 15.7402)" fill="white" stroke="#022B50" stroke-width="0.172419"/>
<rect width="1.3164" height="1.47987" rx="0.146266" transform="matrix(-1 0 0 1 19.8809 16.332)" fill="white" stroke="#022B50" stroke-width="0.172419"/>
<rect width="1.3164" height="1.47987" rx="0.146266" transform="matrix(-1 0 0 1 14.2656 18.1084)" fill="white" stroke="#022B50" stroke-width="0.172419"/>
<rect width="1.3164" height="1.47987" rx="0.146266" transform="matrix(-1 0 0 1 19.8809 18.7002)" fill="white" stroke="#022B50" stroke-width="0.172419"/>
<rect width="1.3164" height="1.47987" rx="0.146266" transform="matrix(-1 0 0 1 12.0723 11.0059)" fill="white" stroke="#022B50" stroke-width="0.172419"/>
<rect width="1.3164" height="1.47987" rx="0.146266" transform="matrix(-1 0 0 1 12.0723 13.373)" fill="white" stroke="#022B50" stroke-width="0.172419"/>
<rect width="1.3164" height="1.47987" rx="0.146266" transform="matrix(-1 0 0 1 12.0723 15.7402)" fill="white" stroke="#022B50" stroke-width="0.172419"/>
<rect width="1.3164" height="1.47987" rx="0.146266" transform="matrix(-1 0 0 1 17.6875 16.332)" fill="white" stroke="#022B50" stroke-width="0.172419"/>
<rect width="1.3164" height="1.47987" rx="0.146266" transform="matrix(-1 0 0 1 12.0723 18.1084)" fill="white" stroke="#022B50" stroke-width="0.172419"/>
<rect width="1.3164" height="1.47987" rx="0.146266" transform="matrix(-1 0 0 1 17.6875 18.7002)" fill="white" stroke="#022B50" stroke-width="0.172419"/>
<path d="M15.0879 20.2295L9.88454 20.2295" stroke="#022B50" stroke-width="0.172419" stroke-linecap="round" stroke-linejoin="round"/>
<path d="M13.1699 21.6085C13.1699 21.2304 12.8634 20.9238 12.4853 20.9238C12.1071 20.9238 11.8006 21.2304 11.8006 21.6085V22.5863H13.1699V21.6085Z" fill="white" stroke="#022B50" stroke-width="0.172419"/>
<path d="M18.7852 21.6085C18.7852 21.2304 18.4786 20.9238 18.1005 20.9238C17.7224 20.9238 17.4159 21.2304 17.4159 21.6085V22.4478H18.7852V21.6085Z" fill="white" stroke="#022B50" stroke-width="0.172419"/>
<path d="M11.5752 8.53293V9.5H11.3397V8.53293H11.5752ZM12.6111 9.5H12.3755L11.9815 8.9035V9.5H11.7459V8.53293H11.9815L12.3755 9.13218V8.53293H12.6111V9.5ZM12.7419 9.01509C12.7419 8.91958 12.7625 8.83463 12.8039 8.76024C12.8452 8.68493 12.9026 8.62661 12.9761 8.58528C13.0505 8.54304 13.1345 8.52191 13.2282 8.52191C13.343 8.52191 13.4412 8.55222 13.523 8.61283C13.6047 8.67345 13.6593 8.7561 13.6869 8.8608H13.4279C13.4086 8.82039 13.3811 8.78962 13.3453 8.7685C13.3104 8.74738 13.2704 8.73682 13.2254 8.73682C13.1529 8.73682 13.0941 8.76207 13.0491 8.81258C13.0041 8.8631 12.9816 8.9306 12.9816 9.01509C12.9816 9.09958 13.0041 9.16708 13.0491 9.21759C13.0941 9.26811 13.1529 9.29336 13.2254 9.29336C13.2704 9.29336 13.3104 9.2828 13.3453 9.26168C13.3811 9.24055 13.4086 9.20979 13.4279 9.16938H13.6869C13.6593 9.27408 13.6047 9.35673 13.523 9.41734C13.4412 9.47704 13.343 9.50689 13.2282 9.50689C13.1345 9.50689 13.0505 9.48622 12.9761 9.4449C12.9026 9.40265 12.8452 9.34433 12.8039 9.26994C12.7625 9.19555 12.7419 9.1106 12.7419 9.01509Z" fill="#022B50"/>
</svg>
