<svg width="23" height="30" viewBox="0 0 23 30" fill="none" xmlns="http://www.w3.org/2000/svg">
<rect x="0.755859" y="1.18555" width="21.6615" height="27.7538" rx="2.2" fill="white" stroke="#022B50" stroke-width="0.66"/>
<path d="M3.36719 12.3154L9.89888 12.3154" stroke="#8095A7" stroke-width="0.66" stroke-linecap="round" stroke-linejoin="round"/>
<path d="M3.36719 14.9551L11.4665 14.9551" stroke="#8095A7" stroke-width="0.66" stroke-linecap="round" stroke-linejoin="round"/>
<path d="M3.36719 17.5938L9.63761 17.5938" stroke="#8095A7" stroke-width="0.66" stroke-linecap="round" stroke-linejoin="round"/>
<path d="M15.6465 12.3154L19.5655 12.3154" stroke="#8095A7" stroke-width="0.66" stroke-linecap="round" stroke-linejoin="round"/>
<path d="M15.6465 14.9551L19.5655 14.9551" stroke="#8095A7" stroke-width="0.66" stroke-linecap="round" stroke-linejoin="round"/>
<path d="M15.6465 17.5938L19.5655 17.5938" stroke="#8095A7" stroke-width="0.66" stroke-linecap="round" stroke-linejoin="round"/>
<path d="M8.76468 5.98328C8.68868 5.84328 8.57868 5.73728 8.43468 5.66528C8.29468 5.58928 8.12868 5.55128 7.93668 5.55128C7.60468 5.55128 7.33868 5.66128 7.13868 5.88128C6.93868 6.09728 6.83868 6.38728 6.83868 6.75128C6.83868 7.13928 6.94268 7.44328 7.15068 7.66328C7.36268 7.87928 7.65268 7.98728 8.02068 7.98728C8.27268 7.98728 8.48468 7.92328 8.65668 7.79528C8.83268 7.66728 8.96068 7.48328 9.04068 7.24328H7.73868V6.48728H9.97068V7.44128C9.89468 7.69728 9.76468 7.93528 9.58068 8.15528C9.40068 8.37528 9.17068 8.55328 8.89068 8.68928C8.61068 8.82528 8.29468 8.89328 7.94268 8.89328C7.52668 8.89328 7.15468 8.80328 6.82668 8.62328C6.50268 8.43928 6.24868 8.18528 6.06468 7.86128C5.88468 7.53728 5.79468 7.16728 5.79468 6.75128C5.79468 6.33528 5.88468 5.96528 6.06468 5.64128C6.24868 5.31328 6.50268 5.05928 6.82668 4.87928C7.15068 4.69528 7.52068 4.60328 7.93668 4.60328C8.44068 4.60328 8.86468 4.72528 9.20868 4.96928C9.55668 5.21328 9.78668 5.55128 9.89868 5.98328H8.76468ZM12.063 8.90528C11.755 8.90528 11.479 8.85528 11.235 8.75528C10.991 8.65528 10.795 8.50728 10.647 8.31128C10.503 8.11528 10.427 7.87928 10.419 7.60328H11.511C11.527 7.75928 11.581 7.87928 11.673 7.96328C11.765 8.04328 11.885 8.08328 12.033 8.08328C12.185 8.08328 12.305 8.04928 12.393 7.98128C12.481 7.90928 12.525 7.81128 12.525 7.68728C12.525 7.58328 12.489 7.49728 12.417 7.42928C12.349 7.36128 12.263 7.30528 12.159 7.26128C12.059 7.21728 11.915 7.16728 11.727 7.11128C11.455 7.02728 11.233 6.94328 11.061 6.85928C10.889 6.77528 10.741 6.65128 10.617 6.48728C10.493 6.32328 10.431 6.10928 10.431 5.84528C10.431 5.45328 10.573 5.14728 10.857 4.92728C11.141 4.70328 11.511 4.59128 11.967 4.59128C12.431 4.59128 12.805 4.70328 13.089 4.92728C13.373 5.14728 13.525 5.45528 13.545 5.85128H12.435C12.427 5.71528 12.377 5.60928 12.285 5.53328C12.193 5.45328 12.075 5.41328 11.931 5.41328C11.807 5.41328 11.707 5.44728 11.631 5.51528C11.555 5.57928 11.517 5.67328 11.517 5.79728C11.517 5.93328 11.581 6.03928 11.709 6.11528C11.837 6.19128 12.037 6.27328 12.309 6.36128C12.581 6.45328 12.801 6.54128 12.969 6.62528C13.141 6.70928 13.289 6.83128 13.413 6.99128C13.537 7.15128 13.599 7.35728 13.599 7.60928C13.599 7.84928 13.537 8.06728 13.413 8.26328C13.293 8.45928 13.117 8.61528 12.885 8.73128C12.653 8.84728 12.379 8.90528 12.063 8.90528ZM17.2604 4.65128V5.47328H16.1444V8.86328H15.1184V5.47328H14.0024V4.65128H17.2604Z" fill="#022B50"/>
<path d="M11.5309 21.6241C11.6869 21.3504 12.084 21.3504 12.24 21.6241C12.3509 21.8187 12.6002 21.8867 12.7936 21.7736C13.0594 21.6183 13.394 21.8067 13.3991 22.1145L13.3999 22.1626C13.4037 22.3877 13.585 22.5693 13.81 22.5735C14.121 22.5792 14.3169 22.9104 14.1722 23.1857L14.1517 23.2248C14.0453 23.4271 14.1121 23.6771 14.3052 23.7994C14.577 23.9716 14.577 24.3683 14.3052 24.5405C14.1121 24.6628 14.0453 24.9129 14.1517 25.1151L14.1722 25.1542C14.3169 25.4295 14.121 25.7607 13.81 25.7664C13.585 25.7706 13.4037 25.9522 13.3999 26.1773L13.3991 26.2254C13.394 26.5332 13.0594 26.7216 12.7936 26.5663C12.6002 26.4532 12.3509 26.5212 12.24 26.7158C12.084 26.9895 11.6869 26.9895 11.5309 26.7158C11.42 26.5212 11.1707 26.4532 10.9773 26.5663C10.7115 26.7216 10.3768 26.5332 10.3717 26.2254L10.3709 26.1773C10.3672 25.9522 10.1859 25.7706 9.96084 25.7664C9.64991 25.7607 9.45397 25.4295 9.59867 25.1542L9.61921 25.1151C9.72555 24.9129 9.65875 24.6628 9.4657 24.5405C9.19385 24.3683 9.19385 23.9716 9.4657 23.7994C9.65875 23.6771 9.72555 23.4271 9.61921 23.2248L9.59867 23.1857C9.45397 22.9104 9.64991 22.5792 9.96084 22.5735C10.1859 22.5693 10.3672 22.3877 10.3709 22.1626L10.3717 22.1145C10.3768 21.8067 10.7115 21.6183 10.9773 21.7736C11.1707 21.8867 11.42 21.8187 11.5309 21.6241Z" fill="#CCD5DC" stroke="#022B50" stroke-width="0.66" stroke-linejoin="round"/>
<path d="M10.9688 24.5628L11.4913 25.0908L13.0589 23.5068" stroke="#022B50" stroke-width="0.66" stroke-linecap="round" stroke-linejoin="round"/>
</svg>
