<svg width="24" height="30" viewBox="0 0 24 30" fill="none" xmlns="http://www.w3.org/2000/svg">
<rect x="1.25586" y="1.18555" width="21.6615" height="27.7538" rx="2.2" fill="white" stroke="#022B50" stroke-width="0.66"/>
<path d="M3.86719 12.3154L10.3989 12.3154" stroke="#8095A7" stroke-width="0.66" stroke-linecap="round" stroke-linejoin="round"/>
<path d="M3.86719 14.9551L11.9665 14.9551" stroke="#8095A7" stroke-width="0.66" stroke-linecap="round" stroke-linejoin="round"/>
<path d="M3.86719 17.5938L10.1376 17.5938" stroke="#8095A7" stroke-width="0.66" stroke-linecap="round" stroke-linejoin="round"/>
<path d="M16.1465 12.3154L20.0655 12.3154" stroke="#8095A7" stroke-width="0.66" stroke-linecap="round" stroke-linejoin="round"/>
<path d="M16.1465 14.9551L20.0655 14.9551" stroke="#8095A7" stroke-width="0.66" stroke-linecap="round" stroke-linejoin="round"/>
<path d="M16.1465 17.5938L20.0655 17.5938" stroke="#8095A7" stroke-width="0.66" stroke-linecap="round" stroke-linejoin="round"/>
<path d="M6.99612 5.98328C6.92013 5.84328 6.81013 5.73728 6.66613 5.66528C6.52613 5.58928 6.36013 5.55128 6.16813 5.55128C5.83613 5.55128 5.57013 5.66128 5.37012 5.88128C5.17013 6.09728 5.07013 6.38728 5.07013 6.75128C5.07013 7.13928 5.17413 7.44328 5.38213 7.66328C5.59413 7.87928 5.88413 7.98728 6.25213 7.98728C6.50413 7.98728 6.71613 7.92328 6.88813 7.79528C7.06413 7.66728 7.19213 7.48328 7.27213 7.24328H5.97013V6.48728H8.20213V7.44128C8.12613 7.69728 7.99613 7.93528 7.81213 8.15528C7.63213 8.37528 7.40213 8.55328 7.12213 8.68928C6.84213 8.82528 6.52613 8.89328 6.17413 8.89328C5.75813 8.89328 5.38613 8.80328 5.05813 8.62328C4.73413 8.43928 4.48013 8.18528 4.29613 7.86128C4.11613 7.53728 4.02612 7.16728 4.02612 6.75128C4.02612 6.33528 4.11613 5.96528 4.29613 5.64128C4.48013 5.31328 4.73413 5.05928 5.05813 4.87928C5.38213 4.69528 5.75213 4.60328 6.16813 4.60328C6.67213 4.60328 7.09613 4.72528 7.44013 4.96928C7.78813 5.21328 8.01813 5.55128 8.13013 5.98328H6.99612ZM10.2944 8.90528C9.98644 8.90528 9.71044 8.85528 9.46644 8.75528C9.22244 8.65528 9.02644 8.50728 8.87844 8.31128C8.73444 8.11528 8.65844 7.87928 8.65044 7.60328H9.74244C9.75844 7.75928 9.81244 7.87928 9.90444 7.96328C9.99644 8.04328 10.1164 8.08328 10.2644 8.08328C10.4164 8.08328 10.5364 8.04928 10.6244 7.98128C10.7124 7.90928 10.7564 7.81128 10.7564 7.68728C10.7564 7.58328 10.7204 7.49728 10.6484 7.42928C10.5804 7.36128 10.4944 7.30528 10.3904 7.26128C10.2904 7.21728 10.1464 7.16728 9.95844 7.11128C9.68644 7.02728 9.46444 6.94328 9.29244 6.85928C9.12044 6.77528 8.97244 6.65128 8.84844 6.48728C8.72444 6.32328 8.66244 6.10928 8.66244 5.84528C8.66244 5.45328 8.80444 5.14728 9.08844 4.92728C9.37244 4.70328 9.74244 4.59128 10.1984 4.59128C10.6624 4.59128 11.0364 4.70328 11.3204 4.92728C11.6044 5.14728 11.7564 5.45528 11.7764 5.85128H10.6664C10.6584 5.71528 10.6084 5.60928 10.5164 5.53328C10.4244 5.45328 10.3064 5.41328 10.1624 5.41328C10.0384 5.41328 9.93844 5.44728 9.86244 5.51528C9.78644 5.57928 9.74844 5.67328 9.74844 5.79728C9.74844 5.93328 9.81244 6.03928 9.94044 6.11528C10.0684 6.19128 10.2684 6.27328 10.5404 6.36128C10.8124 6.45328 11.0324 6.54128 11.2004 6.62528C11.3724 6.70928 11.5204 6.83128 11.6444 6.99128C11.7684 7.15128 11.8304 7.35728 11.8304 7.60928C11.8304 7.84928 11.7684 8.06728 11.6444 8.26328C11.5244 8.45928 11.3484 8.61528 11.1164 8.73128C10.8844 8.84728 10.6104 8.90528 10.2944 8.90528ZM15.4918 4.65128V5.47328H14.3758V8.86328H13.3498V5.47328H12.2338V4.65128H15.4918ZM19.4263 8.86328L18.5503 7.27328H18.3043V8.86328H17.2783V4.65128H19.0003C19.3323 4.65128 19.6143 4.70928 19.8463 4.82528C20.0823 4.94128 20.2583 5.10128 20.3743 5.30528C20.4903 5.50528 20.5483 5.72928 20.5483 5.97728C20.5483 6.25728 20.4683 6.50728 20.3083 6.72728C20.1523 6.94728 19.9203 7.10328 19.6123 7.19528L20.5843 8.86328H19.4263ZM18.3043 6.54728H18.9403C19.1283 6.54728 19.2683 6.50128 19.3603 6.40928C19.4563 6.31728 19.5043 6.18728 19.5043 6.01928C19.5043 5.85928 19.4563 5.73328 19.3603 5.64128C19.2683 5.54928 19.1283 5.50328 18.9403 5.50328H18.3043V6.54728Z" fill="#022B50"/>
<path d="M12.0309 21.6241C12.1869 21.3504 12.584 21.3504 12.74 21.6241C12.8509 21.8187 13.1002 21.8867 13.2936 21.7736C13.5594 21.6183 13.894 21.8067 13.8991 22.1145L13.8999 22.1626C13.9037 22.3877 14.085 22.5693 14.31 22.5735C14.621 22.5792 14.8169 22.9104 14.6722 23.1857L14.6517 23.2248C14.5453 23.4271 14.6121 23.6771 14.8052 23.7994C15.077 23.9716 15.077 24.3683 14.8052 24.5405C14.6121 24.6628 14.5453 24.9129 14.6517 25.1151L14.6722 25.1542C14.8169 25.4295 14.621 25.7607 14.31 25.7664C14.085 25.7706 13.9037 25.9522 13.8999 26.1773L13.8991 26.2254C13.894 26.5332 13.5594 26.7216 13.2936 26.5663C13.1002 26.4532 12.8509 26.5212 12.74 26.7158C12.584 26.9895 12.1869 26.9895 12.0309 26.7158C11.92 26.5212 11.6707 26.4532 11.4773 26.5663C11.2115 26.7216 10.8768 26.5332 10.8717 26.2254L10.8709 26.1773C10.8672 25.9522 10.6859 25.7706 10.4608 25.7664C10.1499 25.7607 9.95397 25.4295 10.0987 25.1542L10.1192 25.1151C10.2255 24.9129 10.1588 24.6628 9.9657 24.5405C9.69385 24.3683 9.69385 23.9716 9.9657 23.7994C10.1588 23.6771 10.2255 23.4271 10.1192 23.2248L10.0987 23.1857C9.95397 22.9104 10.1499 22.5792 10.4608 22.5735C10.6859 22.5693 10.8672 22.3877 10.8709 22.1626L10.8717 22.1145C10.8768 21.8067 11.2115 21.6183 11.4773 21.7736C11.6707 21.8867 11.92 21.8187 12.0309 21.6241Z" fill="#CCD5DC" stroke="#022B50" stroke-width="0.66" stroke-linejoin="round"/>
<path d="M11.4688 24.5628L11.9913 25.0908L13.5589 23.5068" stroke="#022B50" stroke-width="0.66" stroke-linecap="round" stroke-linejoin="round"/>
</svg>
