<svg width="54" height="54" viewBox="0 0 54 54" fill="none" xmlns="http://www.w3.org/2000/svg">
<g clip-path="url(#clip0_4881_14830)">
<rect width="54" height="54" rx="27" fill="url(#paint0_linear_4881_14830)"/>
<g clip-path="url(#clip1_4881_14830)">
<path d="M12.5485 56.0001C12.1655 55.7885 12.0367 55.466 12.0435 55.0304C12.0636 53.69 12.0435 52.3485 12.0524 51.0081C12.0793 46.9858 15.3077 43.7395 19.3322 43.6813C20.9805 43.6578 22.1507 42.6332 22.4116 41.0117C22.4687 40.6556 22.3612 40.4865 22.041 40.3062C19.0018 38.5974 17.311 35.9995 17.0019 32.5192C16.9829 32.3008 16.9146 32.2247 16.7141 32.1519C15.479 31.7051 14.7377 30.6458 14.7343 29.3423C14.7298 27.89 14.6929 26.4354 14.7433 24.9852C14.8497 21.9596 15.6335 19.1567 17.6547 16.8108C19.3837 14.8018 21.6154 13.6821 24.201 13.2711C27.4608 12.7526 30.5749 13.3069 33.5591 14.6753C34.1728 14.9564 34.268 15.1725 34.0451 15.822C33.9555 16.084 34.1593 16.009 34.2635 16.0403C36.5658 16.7324 38.4022 18.056 39.7326 20.0671C40.1178 20.6483 40.0976 20.8902 39.6418 21.3974C38.8558 22.2742 38.4526 23.3055 38.4414 24.478C38.4269 26.0703 38.4392 27.6627 38.4358 29.255C38.4358 29.8485 38.2018 30.0881 37.6139 30.1128C37.2578 30.1352 37.0473 29.9907 36.9454 29.6469C36.8894 29.4566 36.9006 29.2595 36.9006 29.0646C36.9006 27.572 36.9196 26.0793 36.8939 24.5877C36.8726 23.3011 37.2197 22.1398 37.923 21.0727C38.2208 20.6203 38.2108 20.5901 37.858 20.1679C36.3093 18.3146 34.2848 17.4255 31.9175 17.2318C31.7081 17.215 31.501 17.1948 31.2949 17.1568C30.5547 17.0235 30.3117 16.6092 30.5559 15.8948C30.6746 15.6697 30.8996 15.5779 31.1594 15.439C30.9534 15.317 30.7507 15.2901 30.5626 15.2363C29.118 14.8186 27.6422 14.5846 26.1405 14.6395C24.0678 14.7145 22.1048 15.2106 20.3859 16.4323C18.2841 17.9272 17.1184 20.0223 16.6167 22.5094C16.1688 24.7288 16.2595 26.9818 16.2785 29.2281C16.2819 29.6749 16.3961 30.1116 16.8003 30.4106C16.9235 30.2617 16.8698 30.1027 16.8709 29.956C16.8754 28.6716 16.8798 27.3861 16.872 26.1017C16.8608 24.2932 17.6715 22.9203 19.0881 21.8621C19.1665 21.8039 19.2471 21.7479 19.3299 21.6953C20.1978 21.1611 21.1451 20.926 22.1597 20.9271C25.1036 20.9294 28.0475 20.9238 30.9915 20.9293C33.6062 20.9338 35.717 22.7132 36.1705 25.282C36.2074 25.4891 36.2175 25.6974 36.2175 25.9068C36.2175 27.5675 36.2175 29.2281 36.2175 30.8888C36.2175 31.1127 36.2198 31.3367 36.1011 31.5394C36.0932 35.9234 34.0462 38.9737 30.0732 40.7653C30.0363 40.7821 30.0038 40.8124 29.9702 40.8359C29.4573 41.2491 28.8146 41.3096 28.2099 41.4159C27.0386 41.622 25.8561 41.6186 24.6848 41.3779C23.9065 41.2177 23.986 41.1965 23.8102 41.9299C23.6389 42.4887 23.6568 42.5223 24.1842 42.7955C25.229 43.3364 26.341 43.4058 27.4809 43.267C28.1517 43.1852 28.4193 43.3151 28.6444 43.8638C28.6724 44.4886 28.3577 44.8391 27.6422 44.9444C26.8953 45.0541 26.1461 45.0821 25.3992 44.9265C25.0174 44.847 24.6333 44.7764 24.266 44.6398C23.8595 44.4909 23.4687 44.3028 23.0947 44.0878C22.8248 43.9332 22.6188 43.9511 22.3803 44.1505C21.7151 44.707 20.9536 45.0709 20.0892 45.1941C19.62 45.2602 19.1463 45.2243 18.6737 45.2837C16.0154 45.6118 13.8452 47.9242 13.6492 50.4986C13.5272 52.101 13.6291 53.7023 13.5776 55.3025C13.5619 55.6563 13.4074 55.9072 13.049 56.0035H12.5462L12.5485 56.0001Z" fill="#010101"/>
<path d="M30.1538 41.9478C30.6275 41.8123 30.9433 42.0016 31.2109 42.3969C31.7843 43.2423 32.6207 43.679 33.623 43.6701C37.0574 43.6421 40.2544 46.1157 40.9128 49.7595C41.0147 50.3239 41.0382 50.895 41.0337 51.4683C41.0259 52.6553 41.0169 53.8423 41.0382 55.0292C41.0461 55.4648 40.9162 55.7873 40.5332 56.0001H40.0304C39.6743 55.9038 39.5175 55.6574 39.503 55.3025C39.4907 53.9632 39.5209 52.6239 39.4907 51.2858C39.4649 50.1593 39.2589 49.0664 38.6441 48.0899C37.4941 46.2635 35.8323 45.2904 33.6834 45.23C32.034 45.184 30.763 44.5178 29.8347 43.1673C29.529 42.5447 29.6242 42.1785 30.1505 41.949L30.1538 41.9478Z" fill="#010101"/>
<path d="M36.1033 31.5381C36.101 29.6804 36.1033 27.8237 36.0943 25.966C36.0831 23.5618 34.2232 21.4633 31.8346 21.1229C31.4864 21.0736 31.1437 21.0535 30.7955 21.0535C28.0587 21.0535 25.3219 21.0725 22.5852 21.0434C21.4284 21.0311 20.3433 21.2248 19.3355 21.8015C19.2168 21.6067 19.3501 21.4499 19.4285 21.2976C20.6266 18.9751 22.4586 17.3682 24.9076 16.4646C26.4876 15.8823 28.127 15.6953 29.8 15.749C30.0889 15.758 30.3856 15.7669 30.6432 15.936C30.4383 16.6169 30.6365 16.9327 31.3341 17.0334C32.3609 17.1812 33.4023 17.2395 34.3911 17.6101C35.886 18.17 37.1447 19.0457 38.1402 20.2987C38.3126 20.516 38.3541 20.6896 38.1637 20.946C37.3485 22.0434 36.9823 23.2819 37.007 24.6536C37.0338 26.2012 37.0182 27.7487 37.0103 29.2963C37.0081 29.7352 37.1738 30.0185 37.6172 30.1104C37.3429 30.8293 36.8099 31.2738 36.1055 31.537L36.1033 31.5381Z" fill="#C59191"/>
<path d="M30.1538 41.9478C29.6802 42.3834 29.6488 42.5446 29.9276 43.1168C29.8481 43.3811 29.5928 43.4438 29.3991 43.5782C29.1214 43.6745 28.8929 43.9276 28.5581 43.8447C28.2524 43.3531 28.0565 43.277 27.4932 43.3721C26.2984 43.5748 25.1528 43.4236 24.0689 42.8604C23.462 42.5446 23.4608 42.5468 23.7049 41.9175C23.8651 41.66 24.079 41.8123 24.266 41.8582C25.9423 42.2669 27.6041 42.2624 29.2535 41.7193C29.5223 41.6309 29.7709 41.5189 29.9814 41.3274C30.109 41.5144 30.0654 41.7496 30.1538 41.9478Z" fill="#FFC0AD"/>
<path d="M29.9814 41.3274C29.9892 41.5178 29.9108 41.6163 29.7182 41.688C27.8683 42.3823 25.996 42.445 24.0969 41.9276C23.9681 41.8929 23.8382 41.8078 23.705 41.9176C23.7632 41.6488 23.7386 41.2927 23.9032 41.1359C24.0633 40.9836 24.388 41.2042 24.64 41.2558C26.4585 41.6253 28.23 41.436 29.9702 40.8347C29.9736 40.9993 29.9769 41.1628 29.9803 41.3274H29.9814Z" fill="#FFCEBF"/>
<path d="M19.7555 23.3134C20.4139 22.7322 21.2034 22.5038 22.0589 22.5004C25.0443 22.4914 28.0308 22.4858 31.0161 22.5004C33.1325 22.5105 34.6666 24.0715 34.6711 26.1856C34.6745 28.1251 34.6801 30.0646 34.67 32.0052C34.6476 35.9625 31.5861 39.4137 27.6646 39.9199C26.6344 40.0531 25.6142 40.0509 24.6098 39.7452C25.3321 38.9445 25.2313 38.21 24.3186 37.5851C22.1227 36.0835 20.7678 34.0376 20.3658 31.396C20.2717 30.779 20.237 30.1486 20.2325 29.5226C20.2213 27.9325 20.2135 26.3424 20.237 24.7534C20.2448 24.2014 20.2012 23.6997 19.7577 23.3145L19.7555 23.3134Z" fill="#FFCEBF"/>
<path d="M28.5582 43.8447C28.8359 43.7305 29.1125 43.6174 29.3902 43.5032C29.4473 43.6678 29.3185 43.7596 29.2446 43.8705C28.5436 44.9108 29.0464 46.1952 30.2681 46.4986C30.7877 46.6274 31.3207 46.5972 31.8459 46.6554C34.9175 46.9969 37.3743 49.3171 37.8502 52.3652C37.9196 52.8075 37.8782 53.2566 37.8793 53.7022C37.8804 54.2319 38.0126 54.691 38.4661 55.0202C38.5344 55.0695 38.7438 55.1333 38.5433 55.2845C30.5559 55.2823 22.5695 55.2912 14.582 55.2811C14.5529 55.2811 14.5272 55.2733 14.4958 55.2408C14.4488 55.1132 14.5619 55.0505 14.6392 54.9889C15.0591 54.6541 15.2069 54.2039 15.1867 53.6899C15.1475 52.672 15.2651 51.6821 15.6895 50.7449C16.741 48.4235 18.5416 47.0843 21.0421 46.6722C21.4262 46.6084 21.817 46.5804 22.2089 46.5647C23.2638 46.5199 24.0947 45.96 24.1585 44.8391C24.1652 44.7282 24.1831 44.6162 24.2738 44.5334C25.4149 44.8794 26.5705 45.0339 27.7553 44.7876C28.3992 44.6543 28.5414 44.4897 28.5582 43.8447Z" fill="#8399FE"/>
<path d="M30.6421 15.9373C30.0341 15.8544 29.4215 15.8354 28.8101 15.8567C25.8326 15.963 23.1843 16.8779 21.0992 19.0917C20.3546 19.8823 19.7129 20.7625 19.3356 21.8027C18.1419 22.6493 17.3144 23.74 17.0422 25.2103C17.0087 25.3906 16.9919 25.5686 16.9919 25.7489C16.9896 27.367 16.9919 28.9862 16.9919 30.6648C16.3883 30.3983 16.1811 29.9056 16.18 29.377C16.1722 26.8463 16.0031 24.2988 16.6615 21.8128C17.3939 19.0481 18.9504 16.9037 21.5438 15.6092C22.761 15.0011 24.0689 14.7044 25.4317 14.579C27.4977 14.3886 29.4697 14.7649 31.4629 15.3751C31.2244 15.6596 30.8011 15.6114 30.6444 15.9384L30.6421 15.9373Z" fill="#B98080"/>
<path d="M24.2738 44.5321C24.3948 45.9195 23.4284 46.6754 22.1541 46.6967C20.1866 46.728 18.4722 47.3853 17.1049 48.8153C15.9583 50.0146 15.3211 51.4524 15.3133 53.1377C15.3133 53.3337 15.3088 53.5285 15.3133 53.7245C15.3278 54.3493 15.1408 54.8712 14.4577 55.2407C14.6515 55.2407 14.7388 55.2407 14.8273 55.2407C22.6143 55.2407 30.4013 55.2407 38.1884 55.2407C38.3272 55.2407 38.4672 55.2328 38.606 55.2295C38.9241 55.1108 39.2432 54.9854 39.5187 55.3168C39.1144 55.3157 38.7091 55.3135 38.3048 55.3135C30.4573 55.3135 22.6109 55.3135 14.7634 55.3135C14.3446 55.3135 13.9258 55.3224 13.507 55.3269C13.4992 53.6965 13.4231 52.065 13.5474 50.4368C13.7332 47.9923 15.6761 45.8042 18.0825 45.2667C18.7689 45.1133 19.4688 45.1614 20.1541 45.0573C21.0455 44.9229 21.8181 44.5254 22.4721 43.9095C22.6367 43.7539 22.7509 43.7382 22.9334 43.8658C23.3455 44.1536 23.817 44.3306 24.275 44.5321H24.2738Z" fill="#8EA2FF"/>
<path d="M19.7555 23.3132C20.1541 23.4599 20.3445 23.7432 20.3434 24.1699C20.34 25.7869 20.3378 27.405 20.3434 29.0219C20.349 30.4844 20.433 31.9334 20.9805 33.3186C21.3534 34.2603 21.8809 35.099 22.5382 35.8661C23.1485 36.5783 23.8685 37.1539 24.6479 37.669C25.2671 38.0788 25.3847 39.0116 24.9368 39.604C24.8461 39.7227 24.7352 39.7372 24.6087 39.7451C22.9435 39.3867 21.5763 38.5178 20.461 37.258C19.0657 35.6813 18.4005 33.8214 18.4117 31.7139C18.4218 29.8159 18.3972 27.9167 18.4207 26.0186C18.4341 24.919 18.8731 23.9997 19.7555 23.3144V23.3132Z" fill="#FFC0AD"/>
<path d="M39.5187 55.3159C39.2264 55.1603 38.9073 55.2924 38.6061 55.2286C37.9611 54.9117 37.7293 54.363 37.7729 53.6833C37.8704 52.1794 37.484 50.8087 36.6128 49.5915C35.4359 47.9454 33.8358 47.0048 31.8089 46.7685C31.2199 46.6991 30.6096 46.7797 30.0397 46.5591C28.6679 46.0284 28.4328 44.4842 29.3264 43.613C29.3555 43.585 29.3689 43.5413 29.3891 43.5055C29.5682 43.3767 29.7474 43.2479 29.9266 43.1191C30.8481 44.4271 32.0945 45.0889 33.7081 45.118C36.9443 45.1762 39.4403 47.6397 39.5758 50.9342C39.6352 52.3944 39.5803 53.8591 39.5769 55.3226L39.5467 55.3338L39.5187 55.3182V55.3159Z" fill="#7089FF"/>
<path d="M32.7148 53.7583C32.3531 53.7583 31.9914 53.7717 31.6309 53.7549C31.2177 53.7359 30.9343 53.4604 30.9119 53.0864C30.8896 52.7169 31.1885 52.3484 31.5973 52.3328C32.333 52.3059 33.0709 52.307 33.8066 52.3305C34.2209 52.344 34.5121 52.6922 34.4998 53.0741C34.4863 53.4716 34.2064 53.7392 33.7573 53.7571C33.4102 53.7717 33.0619 53.7605 32.7148 53.7605C32.7148 53.7605 32.7148 53.7594 32.7148 53.7583Z" fill="#030101"/>
</g>
</g>
<defs>
<linearGradient id="paint0_linear_4881_14830" x1="-7.5" y1="-16.75" x2="57.3713" y2="56.0647" gradientUnits="userSpaceOnUse">
<stop stop-color="#F1EAFF"/>
<stop offset="1" stop-color="#ECF2FF"/>
</linearGradient>
<clipPath id="clip0_4881_14830">
<rect width="54" height="54" rx="27" fill="white"/>
</clipPath>
<clipPath id="clip1_4881_14830">
<rect width="43" height="43" fill="white" transform="translate(5 13)"/>
</clipPath>
</defs>
</svg>
