<svg width="28" height="36" viewBox="0 0 28 36" fill="none" xmlns="http://www.w3.org/2000/svg">
<rect x="0.813568" y="1.04492" width="26.5846" height="34.0615" rx="2.2" fill="white" stroke="#022B50" stroke-width="0.66"/>
<path d="M4.01838 14.7056L12.0346 14.7056" stroke="#8095A7" stroke-width="0.66" stroke-linecap="round" stroke-linejoin="round"/>
<path d="M4.01838 17.9438L13.9584 17.9438" stroke="#8095A7" stroke-width="0.66" stroke-linecap="round" stroke-linejoin="round"/>
<path d="M4.01838 21.1824L11.7139 21.1824" stroke="#8095A7" stroke-width="0.66" stroke-linecap="round" stroke-linejoin="round"/>
<path d="M19.0884 14.7056L23.8981 14.7056" stroke="#8095A7" stroke-width="0.66" stroke-linecap="round" stroke-linejoin="round"/>
<path d="M19.0884 17.9438L23.8981 17.9438" stroke="#8095A7" stroke-width="0.66" stroke-linecap="round" stroke-linejoin="round"/>
<path d="M19.0884 21.1824L23.8981 21.1824" stroke="#8095A7" stroke-width="0.66" stroke-linecap="round" stroke-linejoin="round"/>
<path d="M12.8752 4.05973V4.88173H11.7592V8.27173H10.7332V4.88173H9.61719V4.05973H12.8752ZM18.1601 4.05973V8.27173H17.1341V5.74573L16.1921 8.27173H15.3641L14.4161 5.73973V8.27173H13.3901V4.05973H14.6021L15.7841 6.97573L16.9541 4.05973H18.1601Z" fill="#022B50"/>
<path d="M14.0379 26.1295C14.2293 25.7936 14.7167 25.7936 14.9082 26.1295C15.0443 26.3684 15.3502 26.4517 15.5876 26.313C15.9137 26.1224 16.3245 26.3536 16.3308 26.7313L16.3317 26.7904C16.3363 27.0666 16.5588 27.2896 16.835 27.2946C17.2166 27.3017 17.4571 27.7082 17.2795 28.046L17.2543 28.094C17.1238 28.3422 17.2058 28.6491 17.4427 28.7992C17.7763 29.0106 17.7763 29.4973 17.4427 29.7087C17.2058 29.8588 17.1238 30.1657 17.2543 30.414L17.2795 30.4619C17.4571 30.7997 17.2166 31.2063 16.835 31.2133C16.5588 31.2184 16.3363 31.4413 16.3317 31.7175L16.3308 31.7766C16.3245 32.1544 15.9137 32.3855 15.5876 32.1949C15.3502 32.0562 15.0443 32.1395 14.9082 32.3784C14.7167 32.7143 14.2293 32.7143 14.0379 32.3784C13.9018 32.1395 13.5959 32.0562 13.3585 32.1949C13.0323 32.3855 12.6216 32.1544 12.6153 31.7766L12.6143 31.7175C12.6098 31.4413 12.3872 31.2184 12.111 31.2133C11.7294 31.2063 11.489 30.7997 11.6665 30.4619L11.6918 30.414C11.8223 30.1657 11.7403 29.8588 11.5034 29.7087C11.1697 29.4973 11.1697 29.0106 11.5034 28.7992C11.7403 28.6491 11.8223 28.3422 11.6918 28.094L11.6665 28.046C11.489 27.7082 11.7294 27.3017 12.111 27.2946C12.3872 27.2896 12.6098 27.0666 12.6143 26.7904L12.6153 26.7313C12.6216 26.3536 13.0323 26.1224 13.3585 26.313C13.5959 26.4517 13.9018 26.3684 14.0379 26.1295Z" fill="#CCD5DC" stroke="#022B50" stroke-width="0.66" stroke-linejoin="round"/>
<path d="M13.348 29.7374L13.9893 30.3854L15.9132 28.4414" stroke="#022B50" stroke-width="0.66" stroke-linecap="round" stroke-linejoin="round"/>
</svg>
